/* XPM */
static char * pokemon_p_up_xpm[] = {
"32 32 18 1",
" 	c #70C8A0",
".	c #40B088",
"+	c #88D8B8",
"@	c #403040",
"#	c #E87060",
"$	c #B05048",
"%	c #A0E0C0",
"&	c #503018",
"*	c #384040",
"=	c #000000",
"-	c #D8A078",
";	c #885028",
">	c #C89800",
",	c #882840",
"'	c #784040",
")	c #F8D0B8",
"!	c #C03838",
"~	c #406888",
"                                ",
"   .                            ",
".  .  .                         ",
" .   .               .          ",
"                  .  .  .       ",
"            +      .   .        ",
"         +  +  +                ",
"          + @@@@@@@             ",
"          @@#######@@           ",
"         @$#########$@     %    ",
"         @###########@  %  %  % ",
"        @$###########$@  %   %  ",
"        @$###########$@         ",
"        @$$#########$$@         ",
"        @$$$$#####$$$$@         ",
"       &@@$$$$***$$$$@@&        ",
"       =-@$$$*****$$$@-=        ",
"       =-&@@$$$$$$$@@&-=  +     ",
"        =&;&@@@@@@@&;&=+  +  +  ",
"         =&;;;;;;;;;&=  +   +   ",
"          =&;;;;;;;&=           ",
"      .   *==&;;;&==*           ",
"   .  .  =**>&&&&&>**=          ",
"    .   =**,>=>>>=>,**=         ",
"       ')-=!=>>>>>=!=-)'        ",
"       '))=,&;>>>;&,=))'        ",
"        ''*~&>;;;>&~*''         ",
"          =*~=>>>=~*=           ",
"          =!!*****!!=           ",
"           ==     ==            ",
"                                ",
"                                "};
