/* XPM */
static char * pokemon_p_left_xpm[] = {
"32 32 21 1",
" 	c #70C8A0",
".	c #40B088",
"+	c #88D8B8",
"@	c #403040",
"#	c #B05048",
"$	c #E87060",
"%	c #A0E0C0",
"&	c #B8B0D0",
"*	c #406888",
"=	c #E8E8F8",
"-	c #882840",
";	c #503018",
">	c #384040",
",	c #885028",
"'	c #784040",
")	c #000000",
"!	c #9890B0",
"~	c #D8A078",
"{	c #F8D0B8",
"]	c #C89800",
"^	c #C03838",
"                                ",
"   .                            ",
".  .  .                         ",
" .   .               .          ",
"                  .  .  .       ",
"            +      .   .        ",
"         +  +  +                ",
"          +  @@@@@@@            ",
"            @#$$$$$$@@          ",
"           @#$$$$$$$$#@    %    ",
"           @$$$$$$$$$$@ %  %  % ",
"          @&$$$$$$$$$$#@ %   %  ",
"         @*#=$$$$$$$$$#@        ",
"        @==#=#$$$$$$$##@        ",
"        @==&###########@        ",
"        @&=-###########@        ",
"         @&&-#########@;        ",
"          @@>@@@@@@@@@,;  +     ",
"          '')!';,;,,,,;+  +  +  ",
"          '~)=~;~~;,,;) +   +   ",
"          ~{{{{~~~;,,;          ",
"      .    '{{~~~;,))           ",
"   .  .  .  '''~;;;];           ",
"    .   .    -&&],]]];          ",
"            >^)>>)]],)          ",
"            >){{>),,])          ",
"            >)~~>>)],)          ",
"             >))**)))           ",
"             )^^^-)             ",
"              ))))              ",
"                                ",
"                                "};
