/* XPM */
static char * pokemon_exit_xpm[] = {
"32 32 11 1",
" 	c #70C8A0",
".	c #4040C0",
"+	c #404078",
"@	c #40B088",
"#	c #5860F8",
"$	c #000000",
"%	c #687898",
"&	c #384878",
"*	c #D8E0E8",
"=	c #A0A8C0",
"-	c #303050",
"           ...................++",
"   @       ####################$",
"@  @  @    ....................$",
" @ %%%%%%%&####################$",
"   ********####################$",
"  %********....................$",
"  $********####################$",
"  $********....................$",
"  $********####################$",
"  $********####################$",
" %$********####################$",
" *$********####################$",
"%*$********....................$",
"&*$********++++++++++++++++++++$",
"&*$=*******++++++++++++%%%%%%%%$",
"&*&%=======++++++++++++++%%%%%%$",
"&*&-%%%%%%%+++++++%%%%%++++++++$",
"&*&------%%++++++%%%%%%%+++%%%%$",
"&*&-%%%--%%++++%%%%%%%%%%+++%%%$",
"&*--%%&-$%%+++%%%%%%%%%%%++++++$",
"&=$-%&-$$%%++%%%%%%%%%%%++%++%%$",
"&=$-%--$$%%++%%%%%%+++%++%%%+%%$",
"&%---$$$$%%+%%%%%++%%+++%%%%%++$",
"-%%$-$$$$&&+%%%%++%%%%%++%%%%++$",
"-%%-$$$$-%%+%%%%+%%%%%%++%%%%++$",
"-%%%%%%%%%%&&&&&&&&&&&&&&&&&&&&$",
"-&&%%%%%%%%%%%%%%%%%%%%%%%%%%%%$",
"-=&%%$$$$$$$$&$$$$$&$$$$$$$$$$$$",
"-=&%-$-&-$$$$%$$$$$%$$$-&-$$$$$ ",
" -&&$&=&=$$%=========$$=&=&$--- ",
" ---$$%&%$$----------$$%&%$$--- ",
" ----$$$$$------------$$$$$---- "};
