/* XPM */
static char * pokemon_wall__xpm[] = {
"32 32 326 2",
"  	c #70C8A0",
". 	c #6FC8A0",
"+ 	c #68C39B",
"@ 	c #71C8A1",
"# 	c #76CCA6",
"$ 	c #53B890",
"% 	c #6EC79F",
"& 	c #6DC69E",
"* 	c #4AB48C",
"= 	c #56BA92",
"- 	c #72C9A2",
"; 	c #7FD2AF",
"> 	c #85D6B4",
", 	c #6FC69E",
"' 	c #67B38A",
") 	c #6D9B52",
"! 	c #6EC49C",
"~ 	c #539849",
"{ 	c #B2F284",
"] 	c #6DC39A",
"^ 	c #80D3B0",
"/ 	c #77CCA7",
"( 	c #67BD91",
"_ 	c #73C19A",
": 	c #4B8240",
"< 	c #90D76B",
"[ 	c #B5F686",
"} 	c #B4F585",
"| 	c #82CE61",
"1 	c #457F39",
"2 	c #60B587",
"3 	c #64BC8F",
"4 	c #6FC79F",
"5 	c #70C8A1",
"6 	c #6DC59C",
"7 	c #50A567",
"8 	c #5FAC6B",
"9 	c #9EDE77",
"0 	c #9FE075",
"a 	c #7FCA5F",
"b 	c #B4F485",
"c 	c #B8F888",
"d 	c #85D363",
"e 	c #79C65B",
"f 	c #9DDE76",
"g 	c #57A861",
"h 	c #4FA566",
"i 	c #6EC59C",
"j 	c #6CC49B",
"k 	c #499C48",
"l 	c #8DD769",
"m 	c #94DD6E",
"n 	c #A7EB7C",
"o 	c #97E071",
"p 	c #87D465",
"q 	c #8ED96A",
"r 	c #81D161",
"s 	c #8BD668",
"t 	c #51A561",
"u 	c #7DCD74",
"v 	c #9FE177",
"w 	c #93DC6E",
"x 	c #AAED7E",
"y 	c #B7F888",
"z 	c #B7F787",
"A 	c #AEF081",
"B 	c #B6F787",
"C 	c #ADEF80",
"D 	c #96DE6F",
"E 	c #66B589",
"F 	c #72B85C",
"G 	c #8BD468",
"H 	c #479939",
"I 	c #57A744",
"J 	c #91DA6C",
"K 	c #B6F686",
"L 	c #97DF70",
"M 	c #A4E77A",
"N 	c #5CAA47",
"O 	c #6EB45A",
"P 	c #6FB554",
"Q 	c #78C55B",
"R 	c #A9EC7D",
"S 	c #B5F586",
"T 	c #99E171",
"U 	c #A9ED7D",
"V 	c #A8EB7D",
"W 	c #6DC29A",
"X 	c #4B773B",
"Y 	c #91D86B",
"Z 	c #9FE076",
"` 	c #65B04D",
" .	c #9ADB72",
"..	c #7BBF5C",
"+.	c #B6F687",
"@.	c #A6E67B",
"#.	c #B2F384",
"$.	c #8BD768",
"%.	c #B0F082",
"&.	c #7CBF5D",
"*.	c #55B890",
"=.	c #64B488",
"-.	c #71B75C",
";.	c #90D96B",
">.	c #A1E378",
",.	c #A5E87A",
"'.	c #5BA546",
").	c #AFF082",
"!.	c #95DE6F",
"~.	c #B1F283",
"{.	c #81CB60",
"].	c #B3F485",
"^.	c #ABEE7E",
"/.	c #72B956",
"(.	c #72C156",
"_.	c #83D162",
":.	c #9EE075",
"<.	c #67B58A",
"[.	c #52B890",
"}.	c #64C098",
"|.	c #62B38B",
"1.	c #419B74",
"2.	c #4E7738",
"3.	c #B2F183",
"4.	c #7DCC5E",
"5.	c #6FB654",
"6.	c #6BB251",
"7.	c #58A844",
"8.	c #78C55A",
"9.	c #B3F484",
"0.	c #ADF080",
"a.	c #A1E277",
"b.	c #75C258",
"c.	c #56A743",
"d.	c #56A843",
"e.	c #7CCC5D",
"f.	c #79C75B",
"g.	c #51793C",
"h.	c #63AE88",
"i.	c #77C09F",
"j.	c #71C7A0",
"k.	c #64BC95",
"l.	c #447035",
"m.	c #6FB44F",
"n.	c #72B853",
"o.	c #71A34E",
"p.	c #8BD166",
"q.	c #629943",
"r.	c #9EDE75",
"s.	c #ACEE7F",
"t.	c #85D364",
"u.	c #73C257",
"v.	c #6CB352",
"w.	c #54A542",
"x.	c #71C055",
"y.	c #73C357",
"z.	c #84D263",
"A.	c #A6EA7B",
"B.	c #88D465",
"C.	c #9BDB73",
"D.	c #457136",
"E.	c #65B489",
"F.	c #58A94D",
"G.	c #6DBA52",
"H.	c #3E7625",
"I.	c #4E9139",
"J.	c #B0F182",
"K.	c #7ABE5C",
"L.	c #8FD86A",
"M.	c #73BA57",
"N.	c #80CE60",
"O.	c #93DC6D",
"P.	c #AFEF82",
"Q.	c #418D3F",
"R.	c #4FA03E",
"S.	c #419635",
"T.	c #6BBA51",
"U.	c #458F34",
"V.	c #70B454",
"W.	c #A0E077",
"X.	c #B1F183",
"Y.	c #7CC05D",
"Z.	c #9AE172",
"`.	c #98E071",
" +	c #A8EB7C",
".+	c #B3F384",
"++	c #73B757",
"@+	c #63AF88",
"#+	c #3F6A30",
"$+	c #56A442",
"%+	c #7DCD5E",
"&+	c #7FCF60",
"*+	c #53A441",
"=+	c #51A23F",
"-+	c #4B9B3C",
";+	c #9FDF76",
">+	c #459041",
",+	c #6DB550",
"'+	c #5BAB46",
")+	c #7ACA5C",
"!+	c #5AAB46",
"~+	c #81D160",
"{+	c #429736",
"]+	c #3C8F31",
"^+	c #6A9C49",
"/+	c #79C35A",
"(+	c #3E6C33",
"_+	c #38892C",
":+	c #376115",
"<+	c #388229",
"[+	c #429636",
"}+	c #7BCB5D",
"|+	c #3C9333",
"1+	c #70C055",
"2+	c #63B188",
"3+	c #447B37",
"4+	c #6BB14E",
"5+	c #3F882E",
"6+	c #3B7322",
"7+	c #54A341",
"8+	c #80D060",
"9+	c #479B39",
"0+	c #6EBE54",
"a+	c #467439",
"b+	c #6BB851",
"c+	c #3F9534",
"d+	c #388E2F",
"e+	c #386E1E",
"f+	c #386A1C",
"g+	c #38691B",
"h+	c #3F671D",
"i+	c #59A945",
"j+	c #70BF55",
"k+	c #4EB189",
"l+	c #3A6A30",
"m+	c #378C2D",
"n+	c #388D2F",
"o+	c #387220",
"p+	c #389030",
"q+	c #388D2E",
"r+	c #385E14",
"s+	c #37580F",
"t+	c #427626",
"u+	c #7CCA5D",
"v+	c #4A9C3B",
"w+	c #3F6D35",
"x+	c #6EC39C",
"y+	c #4E875D",
"z+	c #3A6220",
"A+	c #388C2E",
"B+	c #38832A",
"C+	c #38701F",
"D+	c #386F1E",
"E+	c #385911",
"F+	c #3F641C",
"G+	c #6FB450",
"H+	c #38611D",
"I+	c #407E52",
"J+	c #6DC39B",
"K+	c #6DC29B",
"L+	c #3F6934",
"M+	c #38671A",
"N+	c #385F15",
"O+	c #388F30",
"P+	c #38852B",
"Q+	c #38842A",
"R+	c #378329",
"S+	c #3D6832",
"T+	c #64BD95",
"U+	c #6FC89F",
"V+	c #60BD92",
"W+	c #2E9E61",
"X+	c #378E34",
"Y+	c #386418",
"Z+	c #386317",
"`+	c #6DC69D",
" @	c #43AC7A",
".@	c #329648",
"+@	c #389031",
"@@	c #385B12",
"#@	c #386D1D",
"$@	c #388A2D",
"%@	c #385A11",
"&@	c #6CC59C",
"*@	c #2BA36B",
"=@	c #369137",
"-@	c #385810",
";@	c #395614",
">@	c #403F2F",
",@	c #4B5834",
"'@	c #4A5F33",
")@	c #39812A",
"!@	c #454034",
"~@	c #6D5E5E",
"{@	c #70605F",
"]@	c #665D55",
"^@	c #6CC59D",
"/@	c #32A673",
"(@	c #319547",
"_@	c #38570F",
":@	c #395613",
"<@	c #42462E",
"[@	c #645654",
"}@	c #665757",
"|@	c #64C199",
"1@	c #3CAD81",
"2@	c #289D5E",
"3@	c #379136",
"4@	c #388129",
"5@	c #385D13",
"6@	c #385811",
"7@	c #39511A",
"8@	c #52B78F",
"9@	c #3FAC7B",
"0@	c #29A36F",
"a@	c #309548",
"b@	c #319443",
"c@	c #329442",
"d@	c #386E1D",
"e@	c #67C29A",
"f@	c #60BE93",
"g@	c #3DAE83",
"h@	c #37AB7E",
"i@	c #269D61",
"j@	c #239C5D",
"k@	c #259B5B",
"    . + .                                         @ # @         ",
"$ % & * & % = %                             - ; - - > - - ; -   ",
"% = %   % = %             , ' ) ) ' ,         - ; -   - ; -     ",
"                      - ; ! ~ { { ~ ]                           ",
"                - ^ / ( _ : < [ } | 1 2 3 4 5                   ",
"                6 7 8 9 0 a b c } d e 0 f g h i                 ",
"            5 5 j k l m n o [ c } p q r r s k j 5 5             ",
"          i h t u v w m x y c c z A B C x D v u t h i           ",
"        , E F G H I J K c c c c c c z x L M N H G F E ,         ",
"        , E O P Q R S T [ c c c c c z x L U V Q P O E ,         ",
"      W X Y b Z `  ...b c +.@.+.+.@.#.$.%.&. .` Z b Y X W       ",
"    % *.=.-.;.>.,.'.).!.!.~.{.].].{.#.^.J /.(._.:.;.-.<.,       ",
"[.}.|.1.2.3.c U e 4.5.6.7.8.9.0.0.+.a.b.c.d.e.f.U c 3.g.h.i.j.  ",
"  k.l.m.n.o.p.q.r.s.c [ t.u.v.w.w.v.x.y.z.A.B.C.q.p.o.n.m.D.W   ",
"  , E.F.G.H.I.%.@.+.c x o J.K.L.L.M.N.O.n L n o P.I.H.G.F.E.,   ",
"  ] Q.R.S.T.U.V.W.X.Y.V y [ Z.K K `. +L ,...V .+++U.T.S.R.Q.]   ",
", @+#+$+%+&+x.c.*+=+-+;+S @.+.c c +.@.S ;+-+=+*+c.x.&+%+$+#+@+, ",
"] >+,+'+)+!+x.&+~+e.{+]+^+/+~.!.!.~./+^+]+{+e.~+&+x.!+)+'+,+>+] ",
"W (+_+:+<+[+}+x.!+%+%+c.|+w.1+(.(.1+w.|+c.%+%+!+x.}+[+<+:+_+(+W ",
", 2+3+4+5+6+7+x.&+8+%+'+(.}+9+0+0+9+}+(.'+%+8+&+x.7+6+5+4+3+2+, ",
"W a+b+c+d+e+f+g+h+4+[+c.e.(.i+j+j+i+(.e.c.[+4+h+g+f+e+d+c+b+a+W ",
"k+l+m+n+o+d+p+q+r+s+t+u+e.v+}+y.y.}+v+e.u+t+s+r+q+p+d+o+n+m+w+W ",
"  x+y+z+A+B+C+n+p+n+D+f+g+E+F+G+G+F+E+g+f+D+n+p+n+C+B+A+H+I+J+  ",
"    K+L+M+N+q+p+p+n+o+d+O+P+Q+R+R+Q+P+O+d+o+n+p+p+q+N+M+S+T+.   ",
"  U+V+W+X+C+<+P+A+Y+q+O+<+Z+q+p+p+q+Z+<+O+q+Y+A+P+<+C+X+W+V+U+  ",
"`+ @.@+@p+q+r+E+M+@@#@$@r+%@#@n+n+#@%@r+$@#@@@M+E+r+q+p++@.@ @`+",
"&@*@=@p+A+r+-@-@-@-@-@;@>@,@'@)@)@'@,@>@;@-@-@-@-@-@r+A+p+=@*@&@",
"&@*@=@p+A+r+-@-@-@-@-@;@!@~@{@]@]@{@~@!@;@-@-@-@-@-@r+A+p+=@*@&@",
"^@/@(@+@p+n+#@E+_@-@-@-@:@<@[@}@}@[@<@:@-@-@-@_@E+#@n+p++@(@/@^@",
". |@1@2@3@p+O+P+4@5@-@-@-@6@7@7@7@7@6@-@-@-@5@4@P+O+p+3@2@1@|@. ",
"    % 8@9@0@a@b@c@+@q+d@f+f+f+f+f+f+f+f+d@q++@c@b@a@0@9@8@%     ",
"          e@f@g@h@i@j@k@3@p+p+p+p+p+p+3@k@j@i@h@g@f@e@          "};
