/* XPM */
static char * pokemon_p_down_xpm[] = {
"32 32 24 1",
" 	c #70C8A0",
".	c #40B088",
"+	c #88D8B8",
"@	c #403040",
"#	c #E87060",
"$	c #B05048",
"%	c #A0E0C0",
"&	c #E8E8F8",
"*	c #000000",
"=	c #B8B8D8",
"-	c #503018",
";	c #D89870",
">	c #70514E",
",	c #373737",
"'	c #D8A078",
")	c #A8A0C8",
"!	c #F8D0B8",
"~	c #384040",
"{	c #C89800",
"]	c #784040",
"^	c #C03838",
"/	c #B8B0D0",
"(	c #885028",
"_	c #406888",
"                                ",
"   .                            ",
".  .  .                         ",
" .   .               .          ",
"                  .  .  .       ",
"            +      .   .        ",
"         +  +@@@@@@@            ",
"          +@@#######@@          ",
"          @$#########$@         ",
"          @###########@    %    ",
"          @###########@ %  %  % ",
"         @$$###&&&###$$@ %   %  ",
"         *$$$$=&$&=$$$$*        ",
"         *$$$$=$$$=$$$$*        ",
"         *@$=========$@*        ",
"        -*@$=========$@*-       ",
"        *;>@@=&&&&&=@@>;*       ",
"        *;,>>>>@@@>>>>,;* +     ",
"         *,'>',''',)>',*  +  +  ",
"          *''&*!!!*&''* +   +   ",
"           *'!!!!!!!'*          ",
"      .    *>'!!'!!'>*          ",
"   .  .  .*~{>,''',>{~*         ",
"    .   .]~~{^/,,,/^{~~]        ",
"        ]!'~(^^/~/^^(~'!]       ",
"        ]!!**]^/~/^]**!!]       ",
"         ]]*_*******_*]]        ",
"           *~~__~__~~*          ",
"           *^^*****^^*          ",
"            **     **           ",
"                                ",
"                                "};
